<?xml version="1.0" encoding="UTF-8" standalone="no" ?>
<!DOCTYPE svg PUBLIC "-//W3C//DTD SVG 1.1//EN" "http://www.w3.org/Graphics/SVG/1.1/DTD/svg11.dtd">
<svg xmlns="http://www.w3.org/2000/svg" xmlns:xlink="http://www.w3.org/1999/xlink" version="1.1" width="1280" height="1024" viewBox="0 0 1280 1024" xml:space="preserve">
<desc>Created with Fabric.js 5.3.0</desc>
<defs>
</defs>
<g transform="matrix(1 0 0 1 640 512)" id="background-logo"  >
<rect style="stroke: none; stroke-width: 0; stroke-dasharray: none; stroke-linecap: butt; stroke-dashoffset: 0; stroke-linejoin: miter; stroke-miterlimit: 4; fill: rgb(255,255,255); fill-opacity: 0; fill-rule: nonzero; opacity: 1;"  paint-order="stroke"  x="-640" y="-512" rx="0" ry="0" width="1280" height="1024" />
</g>
<g transform="matrix(1.9211538461538462 0 0 1.9211538461538462 640 394.59550127516485)" id="logo-logo"  >
<g style=""  paint-order="stroke"   >
		<g transform="matrix(0.3394045149335151 0 0 0.33940451493351503 0 0)"  >
<path style="stroke: none; stroke-width: 1; stroke-dasharray: none; stroke-linecap: butt; stroke-dashoffset: 0; stroke-linejoin: miter; stroke-miterlimit: 4; fill: rgb(174,225,244); fill-rule: nonzero; opacity: 1;"  paint-order="stroke"  transform=" translate(-501.62654269416817, -498.08869382916896)" d="M 455.3 187.8 C 319.9 207.3 212.60000000000002 313.8 192.10000000000002 449.1 C 178.40000000000003 539.3000000000001 203.3 623.7 252.70000000000002 688.3 C 256.5 693.3 256.40000000000003 700.1999999999999 252.4 705.0999999999999 L 190.8 780.3999999999999 C 182.60000000000002 790.4999999999999 191.9 805.1999999999998 204.5 802.0999999999999 L 336.4 769.0999999999999 C 339.79999999999995 768.3 343.29999999999995 768.6999999999999 346.29999999999995 770.4999999999999 C 387.49999999999994 794.0999999999999 434.59999999999997 808.5999999999999 484.79999999999995 811.2999999999998 C 673.5 821.4999999999999 829.1999999999999 661.9999999999998 814.5999999999999 473.59999999999985 C 801 296.7 640.7 161 455.3 187.8 z" stroke-linecap="round" />
</g>
		<g transform="matrix(0.3394045149335151 0 0 0.33940451493351503 -0.4663512232216931 1.2766042964273652)"  >
<path style="stroke: none; stroke-width: 1; stroke-dasharray: none; stroke-linecap: butt; stroke-dashoffset: 0; stroke-linejoin: miter; stroke-miterlimit: 4; fill: rgb(249,230,197); fill-rule: nonzero; opacity: 1;"  paint-order="stroke"  transform=" translate(-500.2525149405508, -501.84999999999997)" d="M 507.1 764.3 C 507.70000000000005 763.6999999999999 507.8 762.8 507.5 762 L 490.8 727.8 C 489.8 725.8 488.8 723.6999999999999 487.8 721.5999999999999 L 487.3 720.4999999999999 C 476 696.6 462 667 434 667 C 431.2 667 428.3 667.3 425.3 667.9 C 421.40000000000003 668.6999999999999 417.5 669.5 413.7 670.4 L 412.59999999999997 670.6 C 398.29999999999995 673.7 384.99999999999994 676.7 370.9 676.7 C 363.4 676.7 356.29999999999995 675.9000000000001 349.4 674.1 C 346.7 673.4 344.4 672.3000000000001 342.59999999999997 670.8000000000001 C 334.79999999999995 664.2 335.99999999999994 652.3000000000001 336.99999999999994 641.8000000000001 C 337.3999999999999 638.3000000000001 337.69999999999993 634.9000000000001 337.69999999999993 631.8000000000001 C 337.69999999999993 625.4000000000001 334.8999999999999 623.2 330.99999999999994 620.2 L 330.29999999999995 619.7 C 329.9 619.4000000000001 329.49999999999994 619.3000000000001 329.09999999999997 619.3000000000001 L 322.9 619.3000000000001 L 322.4 616.9000000000001 C 321.9 614.6000000000001 321.4 611.1000000000001 321.4 609.8000000000001 L 321.4 609.7 C 321.5 606.3000000000001 322.7 603.3000000000001 324.29999999999995 600.6 C 323.59999999999997 598.7 323.19999999999993 596.6 323.09999999999997 594.5 C 322.99999999999994 593.2 323.09999999999997 591.8 323.4 590.5 C 323.09999999999997 590.4 322.9 590.3 322.59999999999997 590.2 L 322.29999999999995 590.1 L 321.99999999999994 590 C 318.49999999999994 588 315.59999999999997 585.1 313.79999999999995 581.5 L 311.59999999999997 577.2 L 312.4 575.8000000000001 C 313.2 574.3000000000001 314.5 572.3000000000001 315.29999999999995 570.9000000000001 L 315.4 570.7 C 317.2 567.7 318.09999999999997 566.3000000000001 318.4 565.5 C 320 560.8 320.59999999999997 553.9 318 549.8 C 316.7 547.8 314.9 546.5999999999999 312.6 546.4 C 298.6 544.9 290.90000000000003 537.8 288.8 535.5 L 288.40000000000003 535.1 L 288.1 534.5 C 287.20000000000005 532.4 287.8 527.8 288.90000000000003 525.3 C 289.40000000000003 524.0999999999999 290.20000000000005 523 290.90000000000003 521.9 C 301.6 506 312.8 489.09999999999997 322.70000000000005 471.29999999999995 C 323.80000000000007 469.4 325.1 466.99999999999994 325.80000000000007 464.49999999999994 C 327.4000000000001 458.99999999999994 325.70000000000005 454.09999999999997 324.00000000000006 449.3999999999999 L 323.80000000000007 448.99999999999994 C 323.20000000000005 447.3999999999999 322.70000000000005 445.8999999999999 322.30000000000007 444.3999999999999 C 320.4000000000001 437.19999999999993 319.30000000000007 430.49999999999994 318.80000000000007 423.8999999999999 C 317.80000000000007 410.69999999999993 319.1000000000001 396.69999999999993 322.70000000000005 382.49999999999994 C 329.20000000000005 356.59999999999997 342.80000000000007 330.79999999999995 362.00000000000006 307.69999999999993 C 365.70000000000005 303.29999999999995 369.50000000000006 298.99999999999994 373.6000000000001 294.8999999999999 C 408.9000000000001 259.0999999999999 457.70000000000005 239.39999999999992 511.0000000000001 239.39999999999992 C 513.5000000000001 239.39999999999992 516.0000000000001 239.39999999999992 518.5000000000001 239.49999999999991 C 576.9000000000001 241.49999999999991 631.2000000000002 266.8999999999999 667.5000000000001 309.0999999999999 C 670.5000000000001 312.5999999999999 673.3000000000001 316.19999999999993 676.0000000000001 319.69999999999993 C 698.8000000000001 350.49999999999994 711.9000000000001 387.79999999999995 712.8000000000001 424.79999999999995 C 713.4000000000001 449.79999999999995 707.6 474.99999999999994 695.0000000000001 501.79999999999995 C 693.0000000000001 505.99999999999994 690.9000000000001 510.29999999999995 689.1000000000001 514.0999999999999 C 682.5000000000001 527.6999999999999 675.6000000000001 541.6999999999999 671.2000000000002 556.5999999999999 L 671.0000000000001 557.1999999999999 L 670.6000000000001 557.6999999999999 C 670.4000000000001 557.9 670.2000000000002 558.1999999999999 670.2000000000002 558.4999999999999 C 659.2000000000002 596.5999999999999 659.1000000000001 636.8999999999999 669.9000000000002 675.1999999999999 C 670.1000000000003 676.0999999999999 670.9000000000002 676.6999999999999 671.8000000000002 676.6999999999999 C 671.9000000000002 676.6999999999999 672.1000000000001 676.6999999999999 672.4000000000002 676.5999999999999 C 661 709 583 757 507.1 764.3 z" stroke-linecap="round" />
</g>
		<g transform="matrix(0.3394045149335151 0 0 0.33940451493351503 5.969559508982627 -22.702324683625477)"  >
<path style="stroke: none; stroke-width: 1; stroke-dasharray: none; stroke-linecap: butt; stroke-dashoffset: 0; stroke-linejoin: miter; stroke-miterlimit: 4; fill: rgb(249,173,152); fill-rule: nonzero; opacity: 1;"  paint-order="stroke"  transform=" translate(-519.2148753365668, -431.20000000000005)" d="M 478 474 L 445.7 436.3 C 428.59999999999997 414.7 432.3 383.2 453.9 366.1 C 462.7 359.1 473.7 355.3 484.9 355.3 C 496.79999999999995 355.3 508.2 359.5 517.1999999999999 367.1 C 517.6999999999999 367.5 518.1999999999999 367.6 518.4999999999999 367.6 C 518.9999999999999 367.6 519.4999999999999 367.40000000000003 519.7999999999998 367.1 C 528.9999999999999 358.70000000000005 540.9999999999999 354 553.4999999999999 354 C 564.6999999999999 354 575.6999999999999 357.8 584.4999999999999 364.8 C 594.7999999999998 373 601.3999999999999 384.6 603.0999999999999 397.7 C 604.8 411 600.8 424.8 592.1999999999999 435.8 L 591.6999999999999 436.40000000000003 L 530.9 493.00000000000006 C 525.1999999999999 498.30000000000007 519.3 503.50000000000006 513.6 508.40000000000003 L 478 474 z" stroke-linecap="round" />
</g>
		<g transform="matrix(0.3394045149335151 0 0 0.33940451493351503 -0.49369076194199124 0.6755735772277376)"  >
<path style="stroke: none; stroke-width: 1; stroke-dasharray: none; stroke-linecap: butt; stroke-dashoffset: 0; stroke-linejoin: miter; stroke-miterlimit: 4; fill: rgb(0,0,0); fill-rule: nonzero; opacity: 1;"  paint-order="stroke"  transform=" translate(-500.1719634525258, -500.07916109611165)" d="M 701 504.5 C 699 508.7 697 512.8 695 516.9 C 688.2 530.9 681.1 545.3 676.9 560.3 C 676.6999999999999 561 676.3 561.6999999999999 675.9 562.1999999999999 C 665.8 598.4 665.9 636.6999999999999 676.1999999999999 672.9999999999999 C 676.9 675.5999999999999 675.4999999999999 678.2999999999998 672.9 679.0999999999999 C 672.8 679.0999999999999 672.8 679.0999999999999 672.6999999999999 679.1999999999999 C 672.1999999999999 679.3 671.8 679.4 671.3 679.4 C 669.0999999999999 679.4 667.0999999999999 678 666.5 675.8 C 655.5 637 655.6 596.0999999999999 666.8 557.5 C 667 556.8 667.4 556.2 667.8 555.6 C 672.3 540.6 679.1999999999999 526.4 685.9 512.7 C 687.9 508.70000000000005 689.9 504.50000000000006 691.8 500.40000000000003 C 704.1999999999999 474.1 709.9 449.40000000000003 709.3 424.80000000000007 C 708.4 388.50000000000006 695.5 351.80000000000007 673 321.4000000000001 C 670.4 317.9000000000001 667.6 314.4000000000001 664.7 311.0000000000001 C 629 269.4000000000001 575.4000000000001 244.40000000000012 517.9000000000001 242.5000000000001 C 462.4000000000001 240.6000000000001 411.80000000000007 260.0000000000001 375.2000000000001 297.0000000000001 C 371.3000000000001 301.0000000000001 367.4000000000001 305.2000000000001 363.8000000000001 309.60000000000014 C 344.90000000000015 332.3000000000001 331.5000000000001 357.8000000000001 325.10000000000014 383.20000000000016 C 321.60000000000014 397.10000000000014 320.3000000000001 410.70000000000016 321.3000000000001 423.60000000000014 C 321.8000000000001 430.0000000000001 322.90000000000015 436.5000000000001 324.7000000000001 443.60000000000014 C 325.1000000000001 445.20000000000016 325.7000000000001 446.70000000000016 326.2000000000001 448.40000000000015 C 328.0000000000001 453.3000000000001 330.0000000000001 458.90000000000015 328.1000000000001 465.3000000000001 C 327.30000000000007 468.2000000000001 325.80000000000007 470.7000000000001 324.7000000000001 472.8000000000001 C 314.7000000000001 490.7000000000001 303.5000000000001 507.7000000000001 292.8000000000001 523.6000000000001 C 292.10000000000014 524.7000000000002 291.40000000000015 525.7000000000002 291.0000000000001 526.6000000000001 C 290.10000000000014 528.7000000000002 289.8000000000001 532.4000000000001 290.2000000000001 533.5000000000001 L 290.2000000000001 533.5000000000001 C 292.0000000000001 535.5000000000001 299.1000000000001 542.1000000000001 312.2000000000001 543.5000000000001 C 315.4000000000001 543.8000000000001 318.1000000000001 545.5000000000001 319.9000000000001 548.3000000000001 C 323.1000000000001 553.3000000000001 322.5000000000001 561.1 320.6000000000001 566.6 C 320.2000000000001 567.7 319.50000000000006 569 317.4000000000001 572.4 C 316.6000000000001 573.6999999999999 315.2000000000001 575.9 314.4000000000001 577.4 L 315.9000000000001 580.4 C 317.4000000000001 583.5 319.80000000000007 586 322.80000000000007 587.6 C 324.50000000000006 588.1 325.9000000000001 589.1 327.00000000000006 589.9 C 358.20000000000005 590.6999999999999 392.9000000000001 590.5 430.1 589.1 C 468.8 587.7 506.70000000000005 573.6 536.9 549.2 C 544.6999999999999 542.9000000000001 551 537.6 555.5 533.4000000000001 L 626 468 L 629.3 463.9 C 645.3 443.7 652.4 418.4 649.4 392.79999999999995 C 646.4 367.19999999999993 633.6 344.29999999999995 613.4 328.29999999999995 C 596.4 314.9 575.1999999999999 307.49999999999994 553.6 307.49999999999994 C 541.8000000000001 307.49999999999994 530.2 309.59999999999997 519.2 313.79999999999995 C 518.1 314.19999999999993 516.9000000000001 314.19999999999993 515.8000000000001 313.9 C 505.80000000000007 310.5 495.4000000000001 308.79999999999995 484.9000000000001 308.79999999999995 C 463.30000000000007 308.79999999999995 442.0000000000001 316.19999999999993 425.1000000000001 329.59999999999997 C 383.4000000000001 362.59999999999997 376.2000000000001 423.4 409.30000000000007 465.19999999999993 L 412.80000000000007 469.69999999999993 L 500.30000000000007 548.6999999999999 C 512.1 539.4 523.6 529.5999999999999 534.5000000000001 519.4 L 607.8000000000001 451.2 L 609.3000000000001 449.3 C 621.4000000000001 434 627.1 414.5 624.9000000000001 395.8 C 622.7 376.7 613.2 359.6 598.1000000000001 347.7 C 585.5000000000001 337.7 569.7000000000002 332.2 553.6000000000001 332.2 C 542.0000000000001 332.2 530.4000000000001 335 520.2000000000002 340.4 C 518.8000000000002 341.09999999999997 517.2000000000002 341.2 515.7000000000002 340.5 C 506.10000000000014 336 495.40000000000015 333.5 484.8000000000002 333.5 C 468.70000000000016 333.5 452.9000000000002 339 440.3000000000002 349 C 409.3000000000002 373.5 404.00000000000017 418.8 428.50000000000017 449.8 L 430.8000000000002 452.7 L 500.20000000000016 515.6 L 502.70000000000016 513.6 C 505.70000000000016 511.1 508.60000000000014 508.70000000000005 511.60000000000014 506.1 C 517.4000000000001 501.1 523.2000000000002 496 528.8000000000002 490.70000000000005 L 589.4000000000002 434.30000000000007 L 589.8000000000002 433.80000000000007 C 598.0000000000002 423.50000000000006 601.7000000000002 410.4000000000001 600.1000000000001 398.00000000000006 C 598.5000000000001 385.70000000000005 592.3000000000002 374.80000000000007 582.6000000000001 367.1000000000001 C 574.3000000000002 360.6000000000001 564.0000000000001 357.00000000000006 553.5000000000001 357.00000000000006 C 541.7000000000002 357.00000000000006 530.4000000000001 361.40000000000003 521.8000000000001 369.30000000000007 C 519.9000000000001 371.00000000000006 517.1 371.1000000000001 515.2 369.4000000000001 C 506.80000000000007 362.2000000000001 496.00000000000006 358.30000000000007 484.80000000000007 358.30000000000007 C 474.30000000000007 358.30000000000007 463.9000000000001 361.9000000000001 455.70000000000005 368.4000000000001 C 435.40000000000003 384.5000000000001 431.90000000000003 414.1000000000001 448.00000000000006 434.4000000000001 L 449.00000000000006 435.7000000000001 L 500.20000000000005 482.1000000000001 C 520.3000000000001 465.00000000000006 539.9000000000001 446.7000000000001 558.9000000000001 428.9000000000001 C 563.0000000000001 425.1000000000001 567.1000000000001 421.2000000000001 571.2 417.4000000000001 C 574.8000000000001 412.7000000000001 576.4000000000001 406.9000000000001 575.6 401.0000000000001 C 574.8000000000001 395.0000000000001 571.7 389.7000000000001 566.8000000000001 386.10000000000014 C 557.2 379.0000000000001 543.3000000000001 381.0000000000001 535.7 390.60000000000014 L 522.6 407.20000000000016 C 521.6 408.40000000000015 520.2 409.10000000000014 518.7 409.10000000000014 C 517.2 409.10000000000014 515.7 408.40000000000015 514.8000000000001 407.20000000000016 L 502.30000000000007 391.50000000000017 C 494.70000000000005 381.90000000000015 480.70000000000005 380.20000000000016 471.1000000000001 387.8000000000002 C 461.6000000000001 395.3000000000002 459.9000000000001 409.1000000000002 467.2000000000001 418.70000000000016 L 500.1000000000001 448.50000000000017 L 511.50000000000006 438.1000000000002 L 483 409.3 C 481.1 407.3 481.1 404.2 483 402.2 C 485 400.2 488.1 400.3 490.1 402.2 L 518.4 430.7 L 548.6999999999999 404.2 C 550.8 402.4 553.9 402.59999999999997 555.6999999999999 404.59999999999997 C 557.4999999999999 406.59999999999997 557.4 409.79999999999995 555.3 411.59999999999997 L 503.5 459 C 501.6 460.7 498.7 460.7 496.8 459 L 460.2 425.8 C 460 425.6 459.8 425.40000000000003 459.59999999999997 425.2 C 448.59999999999997 411.3 450.99999999999994 390.9 464.9 379.9 C 478.79999999999995 368.9 499.2 371.2 510.2 385.2 L 518.7 396 L 527.9000000000001 384.4 C 538.8000000000001 370.59999999999997 559.0000000000001 367.79999999999995 572.8000000000001 378.09999999999997 C 579.8000000000001 383.4 584.3000000000001 390.99999999999994 585.5000000000001 399.7 C 586.7000000000002 408.40000000000003 584.3000000000001 417 578.8000000000001 423.9 C 578.6 424.09999999999997 578.5000000000001 424.29999999999995 578.3000000000001 424.5 C 574.1 428.4 569.9000000000001 432.3 565.7 436.3 C 545.6 455.1 524.8000000000001 474.5 503.30000000000007 492.6 C 502.00000000000006 493.70000000000005 500.20000000000005 494 498.6000000000001 493.6 C 497.9000000000001 493.40000000000003 497.30000000000007 493 496.7000000000001 492.5 L 442 442.8 C 441.8 442.6 441.6 442.40000000000003 441.4 442.2 L 440.09999999999997 440.59999999999997 C 420.59999999999997 415.9 424.79999999999995 379.99999999999994 449.49999999999994 360.5 C 459.49999999999994 352.6 472.09999999999997 348.2 484.79999999999995 348.2 C 496.9 348.2 508.59999999999997 352 518.3 359 C 528.3 351.1 540.5999999999999 346.9 553.5 346.9 C 566.3 346.9 578.8 351.29999999999995 588.8 359.2 C 600.5999999999999 368.5 608.0999999999999 381.8 610 396.7 C 611.9 411.8 607.4 427.59999999999997 597.6 440 L 597 440.8 C 596.8 441 596.7 441.2 596.5 441.40000000000003 L 535.6 498.1 C 527 506.1 518.1 513.9 509 521.3000000000001 L 503.2 526.1 C 501.3 527.7 498.5 527.6 496.7 525.9 L 423.79999999999995 459.79999999999995 C 423.59999999999997 459.59999999999997 423.4 459.4 423.19999999999993 459.19999999999993 L 420.69999999999993 455.99999999999994 C 392.69999999999993 420.59999999999997 398.79999999999995 369.0999999999999 434.0999999999999 341.19999999999993 C 448.4999999999999 329.79999999999995 466.4999999999999 323.5999999999999 484.7999999999999 323.5999999999999 C 496.0999999999999 323.5999999999999 507.3999999999999 325.9999999999999 517.6999999999999 330.4999999999999 C 528.8 325.0999999999999 541.0999999999999 322.2999999999999 553.4999999999999 322.2999999999999 C 571.7999999999998 322.2999999999999 589.7999999999998 328.5999999999999 604.1999999999999 339.8999999999999 C 621.4 353.49999999999994 632.1999999999999 372.8999999999999 634.6999999999999 394.69999999999993 C 637.1999999999999 415.99999999999994 630.6999999999999 438.19999999999993 616.9999999999999 455.5999999999999 L 615.2999999999998 457.7999999999999 C 615.0999999999998 457.9999999999999 614.9999999999999 458.1999999999999 614.7999999999998 458.3999999999999 L 541.2999999999998 526.8999999999999 C 529.0999999999998 538.2999999999998 516.1999999999998 549.1999999999998 503.09999999999985 559.3999999999999 C 501.1999999999999 560.8999999999999 498.49999999999983 560.7999999999998 496.6999999999999 559.1999999999998 L 405.79999999999984 477.0999999999998 C 405.59999999999985 476.8999999999998 405.39999999999986 476.6999999999998 405.1999999999998 476.4999999999998 L 401.3999999999998 471.69999999999976 C 364.99999999999983 425.59999999999974 372.7999999999998 358.4999999999998 418.8999999999998 322.0999999999998 C 437.5999999999998 307.2999999999998 461.0999999999998 299.0999999999998 484.8999999999998 299.0999999999998 C 495.8999999999998 299.0999999999998 506.7999999999998 300.7999999999998 517.2999999999998 304.0999999999998 C 528.9999999999999 299.8999999999998 541.1999999999998 297.6999999999998 553.5999999999998 297.6999999999998 C 577.4999999999998 297.6999999999998 600.8999999999997 305.8999999999998 619.5999999999998 320.6999999999998 C 641.8999999999997 338.29999999999984 655.9999999999998 363.5999999999998 659.2999999999998 391.8999999999998 C 662.5999999999998 420.1999999999998 654.6999999999998 447.99999999999983 637.0999999999998 470.29999999999984 L 633.5999999999998 474.79999999999984 C 633.3999999999997 474.99999999999983 633.2999999999998 475.1999999999998 633.0999999999998 475.29999999999984 L 562.6999999999998 540.7999999999998 C 557.9999999999998 545.1999999999998 551.5999999999998 550.5999999999998 543.5999999999998 557.0999999999998 C 511.6999999999998 582.7999999999998 471.6999999999998 597.6999999999998 430.7999999999998 599.1999999999998 C 407.69999999999976 599.9999999999998 385.4999999999998 600.3999999999999 364.4999999999998 600.3999999999999 C 351.89999999999975 600.3999999999999 339.69999999999976 600.1999999999998 327.9999999999998 599.8999999999999 C 325.89999999999975 603.2999999999998 324.0999999999998 606.3999999999999 324.0999999999998 609.8999999999999 C 324.0999999999998 610.9999999999999 324.5999999999998 614.1999999999998 325.0999999999998 616.3999999999999 L 328.8999999999998 616.3999999999999 C 329.99999999999983 616.3999999999999 331.0999999999998 616.7999999999998 331.8999999999998 617.3999999999999 L 332.5999999999998 617.9999999999999 C 336.6999999999998 621.0999999999999 340.5999999999998 624.0999999999999 340.4999999999998 631.9999999999999 C 340.4999999999998 635.1999999999999 340.0999999999998 638.5999999999999 339.7999999999998 642.1999999999999 C 338.7999999999998 652.4 337.69999999999976 662.9999999999999 344.2999999999998 668.5999999999999 C 345.7999999999998 669.8 347.69999999999976 670.8 349.8999999999998 671.3 C 371.3999999999998 676.6999999999999 390.99999999999983 672.3 411.7999999999998 667.8 C 415.9999999999998 666.9 420.2999999999998 665.9 424.5999999999998 665.0999999999999 C 460.8999999999998 657.8 477.6999999999998 693.3999999999999 489.8999999999998 719.3 C 491.0999999999998 721.8 492.2999999999998 724.3 493.3999999999998 726.5999999999999 L 510.0999999999998 760.8 C 511.0999999999998 762.8 510.5999999999998 765 509.1999999999998 766.5 C 508.79999999999984 766.9 508.29999999999984 767.3 507.79999999999984 767.5 C 507.09999999999985 767.8 506.29999999999984 768 505.59999999999985 768 C 503.79999999999984 768 501.99999999999983 767 501.09999999999985 765.2 L 484.39999999999986 731 C 483.1999999999999 728.6 482.09999999999985 726.1 480.89999999999986 723.6 C 469.4999999999999 699.4 455.29999999999984 669.2 426.59999999999985 674.9 C 422.39999999999986 675.6999999999999 418.09999999999985 676.6999999999999 413.99999999999983 677.6 C 392.99999999999983 682.2 371.29999999999984 687 347.5999999999998 681 C 343.7999999999998 680.1 340.5999999999998 678.4 337.9999999999998 676.2 C 327.39999999999975 667.2 328.7999999999998 652.8000000000001 329.9999999999998 641.2 C 330.2999999999998 637.8000000000001 330.5999999999998 634.7 330.69999999999976 631.9000000000001 C 330.69999999999976 629.1000000000001 330.39999999999975 628.7 327.2999999999998 626.3000000000001 L 322.0999999999998 626.3000000000001 C 322.0999999999998 626.3000000000001 321.9999999999998 626.3000000000001 321.9999999999998 626.3000000000001 C 316.89999999999975 626.2 315.89999999999975 620.4000000000001 315.19999999999976 617.0000000000001 C 314.69999999999976 614.2000000000002 314.2999999999998 610.9000000000001 314.2999999999998 609.6000000000001 C 314.3999999999998 604.3000000000002 316.3999999999998 600.0000000000001 318.69999999999976 596.2000000000002 C 313.89999999999975 593.6000000000001 309.9999999999998 589.6000000000001 307.59999999999974 584.6000000000001 L 305.09999999999974 579.7000000000002 C 303.59999999999974 576.6000000000001 305.09999999999974 574.2000000000002 309.39999999999975 567.0000000000001 C 310.2999999999997 565.6000000000001 311.4999999999998 563.6000000000001 311.7999999999997 563.0000000000001 C 313.2999999999997 558.5000000000001 312.7999999999997 554.0000000000001 311.89999999999975 553.3000000000001 C 311.89999999999975 553.3000000000001 311.89999999999975 553.3000000000001 311.7999999999997 553.3000000000001 C 295.6999999999997 551.6 286.6999999999997 543.5000000000001 283.4999999999997 540.2 C 278.8999999999997 535.5 280.7999999999997 526.2 282.3999999999997 522.5 C 283.1999999999997 520.7 284.1999999999997 519.2 284.9999999999997 517.9 C 295.4999999999997 502.2 306.6999999999997 485.4 316.4999999999997 467.79999999999995 C 317.3999999999997 466.09999999999997 318.4999999999997 464.19999999999993 318.9999999999997 462.4 C 319.9999999999997 459 318.6999999999997 455.59999999999997 317.2999999999997 451.59999999999997 C 316.6999999999997 449.79999999999995 315.9999999999997 447.9 315.4999999999997 445.9 C 313.4999999999997 438.2 312.2999999999997 431.09999999999997 311.7999999999997 424.09999999999997 C 310.7999999999997 410.09999999999997 312.09999999999974 395.49999999999994 315.7999999999997 380.49999999999994 C 322.4999999999997 353.59999999999997 336.59999999999974 326.79999999999995 356.4999999999997 302.99999999999994 C 360.2999999999997 298.3999999999999 364.2999999999997 293.99999999999994 368.4999999999997 289.79999999999995 C 388.09999999999974 269.99999999999994 411.4999999999997 254.89999999999995 438.1999999999997 244.99999999999994 C 463.5999999999997 235.59999999999994 490.5999999999997 231.29999999999995 518.5999999999997 232.29999999999995 C 578.9999999999997 234.39999999999995 635.0999999999997 260.59999999999997 672.6999999999997 304.29999999999995 C 675.7999999999997 307.9 678.6999999999997 311.59999999999997 681.4999999999997 315.29999999999995 C 705.1999999999997 347.29999999999995 718.7999999999996 385.99999999999994 719.6999999999997 424.4 C 720.2 450.5 714.1 476.7 701 504.5 z" stroke-linecap="round" />
</g>
</g>
</g>
<g transform="matrix(1.9211538461538462 0 0 1.9211538461538462 639.4121269230772 715.3227389292437)" id="text-logo"  >
<g style=""  paint-order="stroke"   >
		<g transform="matrix(1 0 0 1 0 0)" id="text-logo-path-0"  >
<path style="stroke: none; stroke-width: 0; stroke-dasharray: none; stroke-linecap: butt; stroke-dashoffset: 0; stroke-linejoin: miter; stroke-miterlimit: 4; fill: rgb(0,0,0); fill-rule: nonzero; opacity: 1;"  paint-order="stroke"  transform=" translate(-310.06, 11.61)" d="M 17.14 0 L 23.19 0 L 14.65 -23.26 L 8.6 -23.26 L 0.1 0 L 6.15 0 L 7.65 -4.05 L 15.64 -4.05 Z M 9.59 -9.42 L 11.66 -15.03 L 13.67 -9.42 Z M 35.7 0.48 C 40.02 0.48 44.2 -1.94 44.2 -6.6 C 44.2 -11.19 40.6 -13.09 36.69 -14.28 C 35.63 -14.62 34.85 -14.93 34.34 -15.16 C 33.63 -15.5 33.12 -15.88 33.12 -16.73 C 33.12 -17.71 34.37 -18.09 35.16 -18.09 C 36.99 -18.09 37.91 -17.27 38.69 -15.67 L 43.52 -18.5 C 41.85 -21.93 38.96 -23.7 35.16 -23.7 C 31.01 -23.7 27.47 -21.01 27.47 -16.73 C 27.47 -12.34 30.6 -10.61 34.37 -9.49 C 35.56 -9.15 36.41 -8.84 36.99 -8.6 C 37.77 -8.3 38.56 -7.89 38.56 -6.94 C 38.56 -5.68 36.86 -5.07 35.84 -5.07 C 33.63 -5.07 32.1 -5.92 31.25 -8.02 L 26.49 -5.24 C 28.02 -1.33 31.62 0.48 35.7 0.48 Z M 58.04 0.48 C 62.36 0.48 66.54 -1.94 66.54 -6.6 C 66.54 -11.19 62.93 -13.09 59.02 -14.28 C 57.97 -14.62 57.19 -14.93 56.68 -15.16 C 55.96 -15.5 55.45 -15.88 55.45 -16.73 C 55.45 -17.71 56.71 -18.09 57.49 -18.09 C 59.33 -18.09 60.25 -17.27 61.03 -15.67 L 65.86 -18.5 C 64.19 -21.93 61.3 -23.7 57.49 -23.7 C 53.35 -23.7 49.81 -21.01 49.81 -16.73 C 49.81 -12.34 52.94 -10.61 56.71 -9.49 C 57.9 -9.15 58.75 -8.84 59.33 -8.6 C 60.11 -8.3 60.89 -7.89 60.89 -6.94 C 60.89 -5.68 59.19 -5.07 58.17 -5.07 C 55.96 -5.07 54.43 -5.92 53.58 -8.02 L 48.82 -5.24 C 50.35 -1.33 53.96 0.48 58.04 0.48 Z M 83.03 0.48 C 89.69 0.48 95 -4.93 95 -11.53 C 95 -18.22 89.66 -23.49 83.03 -23.49 C 76.36 -23.49 71.03 -18.12 71.03 -11.53 C 71.03 -4.96 76.4 0.48 83.03 0.48 Z M 76.67 -11.53 C 76.67 -14.99 79.59 -17.85 83.03 -17.85 C 86.53 -17.85 89.32 -14.99 89.32 -11.53 C 89.32 -8.06 86.53 -5.2 83.03 -5.2 C 79.56 -5.2 76.67 -8.09 76.67 -11.53 Z M 100.1 -11.53 C 100.1 -4.9 105.54 0.48 112.1 0.48 C 116.48 0.48 120.63 -2.04 122.67 -5.92 L 117.67 -8.64 C 116.65 -6.56 114.41 -5.2 112.1 -5.2 C 108.63 -5.2 105.74 -8.09 105.74 -11.53 C 105.74 -14.99 108.66 -17.85 112.1 -17.85 C 114.41 -17.85 116.52 -16.63 117.64 -14.59 L 122.6 -17.24 C 120.53 -21.11 116.48 -23.49 112.1 -23.49 C 105.5 -23.49 100.1 -18.19 100.1 -11.53 Z M 129.3 -23.26 L 129.3 0 L 134.98 0 L 134.98 -23.26 Z M 157.25 0 L 163.3 0 L 154.77 -23.26 L 148.72 -23.26 L 140.22 0 L 146.27 0 L 147.76 -4.05 L 155.75 -4.05 Z M 149.7 -9.42 L 151.78 -15.03 L 153.78 -9.42 Z M 180.91 -17.88 L 180.91 -23.26 L 163.54 -23.26 L 163.54 -17.88 L 169.42 -17.88 L 169.42 0 L 175.07 0 L 175.07 -17.88 Z M 191.73 -5.34 L 191.73 -9.21 L 199.82 -9.21 L 199.82 -14.55 L 191.73 -14.55 L 191.73 -17.88 L 200.63 -17.88 L 200.63 -23.26 L 186.05 -23.26 L 186.05 0 L 200.8 0 L 200.8 -5.34 Z M 217.53 -23.26 L 207.6 -23.26 L 207.6 0 L 217.53 0 C 224.16 0 229.47 -4.9 229.47 -11.53 C 229.47 -18.12 224.16 -23.26 217.53 -23.26 Z M 213.28 -5.34 L 213.28 -17.88 L 217.53 -17.88 C 221.03 -17.88 223.82 -15.06 223.82 -11.59 C 223.82 -8.09 220.97 -5.34 217.53 -5.34 Z M 257.35 -23.26 L 248.47 -23.26 L 248.47 0 L 254.12 0 L 254.12 -7.48 L 257.35 -7.48 C 261.73 -7.48 265.27 -11.02 265.27 -15.37 C 265.27 -19.72 261.73 -23.26 257.35 -23.26 Z M 254.12 -12.85 L 254.12 -17.88 L 257.35 -17.88 C 258.81 -17.88 259.86 -16.83 259.86 -15.37 C 259.86 -13.94 258.77 -12.85 257.35 -12.85 Z M 279.79 0.48 C 284.1 0.48 288.29 -1.94 288.29 -6.6 C 288.29 -11.19 284.68 -13.09 280.77 -14.28 C 279.72 -14.62 278.94 -14.93 278.43 -15.16 C 277.71 -15.5 277.2 -15.88 277.2 -16.73 C 277.2 -17.71 278.46 -18.09 279.24 -18.09 C 281.08 -18.09 282 -17.27 282.78 -15.67 L 287.61 -18.5 C 285.94 -21.93 283.05 -23.7 279.24 -23.7 C 275.09 -23.7 271.56 -21.01 271.56 -16.73 C 271.56 -12.34 274.69 -10.61 278.46 -9.49 C 279.65 -9.15 280.5 -8.84 281.08 -8.6 C 281.86 -8.3 282.64 -7.89 282.64 -6.94 C 282.64 -5.68 280.94 -5.07 279.92 -5.07 C 277.71 -5.07 276.18 -5.92 275.33 -8.02 L 270.57 -5.24 C 272.1 -1.33 275.71 0.48 279.79 0.48 Z M 306.92 -23.26 L 302.19 -14.52 L 297.43 -23.26 L 291.04 -23.26 L 299.34 -7.89 L 299.34 0 L 305.01 0 L 305.01 -7.82 L 313.31 -23.26 Z M 318.07 -11.53 C 318.07 -4.9 323.51 0.48 330.07 0.48 C 334.46 0.48 338.61 -2.04 340.65 -5.92 L 335.65 -8.64 C 334.63 -6.56 332.38 -5.2 330.07 -5.2 C 326.6 -5.2 323.71 -8.09 323.71 -11.53 C 323.71 -14.99 326.64 -17.85 330.07 -17.85 C 332.38 -17.85 334.49 -16.63 335.61 -14.59 L 340.58 -17.24 C 338.5 -21.11 334.46 -23.49 330.07 -23.49 C 323.48 -23.49 318.07 -18.19 318.07 -11.53 Z M 361.25 -23.26 L 361.25 -14.59 L 351.93 -14.59 L 351.93 -23.26 L 346.26 -23.26 L 346.26 0 L 351.93 0 L 351.93 -9.21 L 361.25 -9.21 L 361.25 0 L 366.89 0 L 366.89 -23.26 Z M 384.74 0.48 C 391.41 0.48 396.71 -4.93 396.71 -11.53 C 396.71 -18.22 391.37 -23.49 384.74 -23.49 C 378.08 -23.49 372.74 -18.12 372.74 -11.53 C 372.74 -4.96 378.11 0.48 384.74 0.48 Z M 378.39 -11.53 C 378.39 -14.99 381.31 -17.85 384.74 -17.85 C 388.25 -17.85 391.03 -14.99 391.03 -11.53 C 391.03 -8.06 388.25 -5.2 384.74 -5.2 C 381.28 -5.2 378.39 -8.09 378.39 -11.53 Z M 418.03 -17.88 L 418.03 -23.26 L 400.66 -23.26 L 400.66 -17.88 L 406.54 -17.88 L 406.54 0 L 412.18 0 L 412.18 -17.88 Z M 438.74 -23.26 L 438.74 -14.59 L 429.42 -14.59 L 429.42 -23.26 L 423.74 -23.26 L 423.74 0 L 429.42 0 L 429.42 -9.21 L 438.74 -9.21 L 438.74 0 L 444.38 0 L 444.38 -23.26 Z M 457.91 -5.34 L 457.91 -9.21 L 466 -9.21 L 466 -14.55 L 457.91 -14.55 L 457.91 -17.88 L 466.82 -17.88 L 466.82 -23.26 L 452.23 -23.26 L 452.23 0 L 466.99 0 L 466.99 -5.34 Z M 481.88 -7.48 L 486.06 0 L 492.52 0 L 487.66 -8.77 C 489.91 -10.23 491.2 -12.72 491.2 -15.37 C 491.2 -19.75 487.7 -23.26 483.34 -23.26 L 473.48 -23.26 L 473.48 0 L 479.16 0 L 479.16 -7.48 Z M 479.16 -12.85 L 479.16 -17.88 L 483.34 -17.88 C 484.77 -17.88 485.86 -16.8 485.86 -15.37 C 485.86 -14.01 484.7 -12.85 483.34 -12.85 Z M 513.81 0 L 519.86 0 L 511.33 -23.26 L 505.27 -23.26 L 496.77 0 L 502.83 0 L 504.32 -4.05 L 512.31 -4.05 Z M 506.26 -9.42 L 508.33 -15.03 L 510.34 -9.42 Z M 533.97 -23.26 L 525.1 -23.26 L 525.1 0 L 530.74 0 L 530.74 -7.48 L 533.97 -7.48 C 538.36 -7.48 541.89 -11.02 541.89 -15.37 C 541.89 -19.72 538.36 -23.26 533.97 -23.26 Z M 530.74 -12.85 L 530.74 -17.88 L 533.97 -17.88 C 535.43 -17.88 536.49 -16.83 536.49 -15.37 C 536.49 -13.94 535.4 -12.85 533.97 -12.85 Z M 547.71 -23.26 L 547.71 0 L 553.38 0 L 553.38 -23.26 Z M 568.58 0.48 C 572.9 0.48 577.08 -1.94 577.08 -6.6 C 577.08 -11.19 573.48 -13.09 569.57 -14.28 C 568.51 -14.62 567.73 -14.93 567.22 -15.16 C 566.51 -15.5 566 -15.88 566 -16.73 C 566 -17.71 567.26 -18.09 568.04 -18.09 C 569.87 -18.09 570.79 -17.27 571.57 -15.67 L 576.4 -18.5 C 574.74 -21.93 571.85 -23.7 568.04 -23.7 C 563.89 -23.7 560.35 -21.01 560.35 -16.73 C 560.35 -12.34 563.48 -10.61 567.26 -9.49 C 568.45 -9.15 569.3 -8.84 569.87 -8.6 C 570.66 -8.3 571.44 -7.89 571.44 -6.94 C 571.44 -5.68 569.74 -5.07 568.72 -5.07 C 566.51 -5.07 564.98 -5.92 564.13 -8.02 L 559.37 -5.24 C 560.9 -1.33 564.5 0.48 568.58 0.48 Z M 598.47 -17.88 L 598.47 -23.26 L 581.09 -23.26 L 581.09 -17.88 L 586.98 -17.88 L 586.98 0 L 592.62 0 L 592.62 -17.88 Z M 611.52 0.48 C 615.84 0.48 620.02 -1.94 620.02 -6.6 C 620.02 -11.19 616.42 -13.09 612.51 -14.28 C 611.46 -14.62 610.67 -14.93 610.16 -15.16 C 609.45 -15.5 608.94 -15.88 608.94 -16.73 C 608.94 -17.71 610.2 -18.09 610.98 -18.09 C 612.82 -18.09 613.73 -17.27 614.52 -15.67 L 619.34 -18.5 C 617.68 -21.93 614.79 -23.7 610.98 -23.7 C 606.83 -23.7 603.3 -21.01 603.3 -16.73 C 603.3 -12.34 606.42 -10.61 610.2 -9.49 C 611.39 -9.15 612.24 -8.84 612.82 -8.6 C 613.6 -8.3 614.38 -7.89 614.38 -6.94 C 614.38 -5.68 612.68 -5.07 611.66 -5.07 C 609.45 -5.07 607.92 -5.92 607.07 -8.02 L 602.31 -5.24 C 603.84 -1.33 607.44 0.48 611.52 0.48 Z" stroke-linecap="round" />
</g>
</g>
</g>
<g transform="matrix(1.9211538461538462 0 0 1.9211538461538462 648.4420302884614 803.1463479453507)" id="tagline-e6fb4360-cb73-459c-a35a-00ae69d8e106-logo"  >
<g style=""  paint-order="stroke"   >
		<g transform="matrix(1 0 0 1 0 0)" id="tagline-e6fb4360-cb73-459c-a35a-00ae69d8e106-logo-path-0"  >
<path style="stroke: none; stroke-width: 0; stroke-dasharray: none; stroke-linecap: butt; stroke-dashoffset: 0; stroke-linejoin: miter; stroke-miterlimit: 4; fill: rgb(0,0,0); fill-rule: nonzero; opacity: 1;"  paint-order="stroke"  transform=" translate(-152.39000000000001, 9.425)" d="M 1.35 -2.59 C 2.54 -0.92 4.62 0.19 6.99 0.19 C 10.64 0.19 13.69 -2.54 13.69 -5.75 C 13.69 -9.96 10.34 -10.8 8.23 -11.61 C 5.99 -12.39 4.46 -12.64 4.46 -14.04 C 4.46 -15.42 5.4 -16.12 7.29 -16.12 C 8.45 -16.12 9.18 -15.74 9.75 -14.93 C 10.02 -14.55 10.48 -14.31 10.96 -14.31 C 11.77 -14.31 12.45 -14.98 12.45 -15.79 C 12.45 -16.12 12.34 -16.42 12.18 -16.66 C 11.12 -18.12 9.31 -19.09 7.29 -19.09 C 4.13 -19.09 1.48 -17.04 1.48 -14.04 C 1.48 -10.53 4.54 -9.77 7.21 -8.8 C 9.48 -7.94 10.72 -7.7 10.72 -5.75 C 10.72 -4.08 9.29 -2.78 6.99 -2.78 C 5.48 -2.78 4.48 -3.29 3.78 -4.32 C 3.51 -4.7 3.08 -4.94 2.56 -4.94 C 1.75 -4.94 1.08 -4.27 1.08 -3.46 C 1.08 -3.13 1.19 -2.83 1.35 -2.59 Z M 40.23 -2.97 L 31.94 -2.97 L 31.94 -17.58 C 31.94 -18.39 31.27 -19.06 30.46 -19.06 C 29.65 -19.06 28.97 -18.39 28.97 -17.58 L 28.97 -1.62 C 28.97 -0.73 29.7 0 30.59 0 L 40.23 0 C 41.04 0 41.71 -0.68 41.71 -1.48 C 41.71 -2.29 41.04 -2.97 40.23 -2.97 Z M 64.5 -2.78 C 60.56 -2.78 57.81 -5.54 57.81 -9.48 C 57.81 -13.37 60.56 -16.12 64.5 -16.12 C 68.36 -16.12 71.15 -13.37 71.15 -9.48 C 71.15 -5.54 68.36 -2.78 64.5 -2.78 Z M 54.84 -9.48 C 54.84 -4.08 59.1 0.19 64.5 0.19 C 69.8 0.19 74.12 -4.08 74.12 -9.48 C 74.12 -14.82 69.8 -19.09 64.5 -19.09 C 59.1 -19.09 54.84 -14.82 54.84 -9.48 Z M 101.98 -7.96 L 104.33 -7.96 L 104.33 -4.56 C 103.06 -3.4 101.49 -2.78 99.6 -2.78 C 95.28 -2.78 92.37 -5.29 92.37 -9.48 C 92.37 -13.61 95.28 -16.12 99.6 -16.12 C 100.93 -16.12 102.03 -15.82 103.09 -15.23 C 103.3 -15.12 103.54 -15.04 103.81 -15.04 C 104.63 -15.04 105.3 -15.71 105.3 -16.52 C 105.3 -17.09 104.98 -17.58 104.52 -17.82 C 103.06 -18.63 101.38 -19.09 99.6 -19.09 C 93.96 -19.09 89.4 -15.15 89.4 -9.48 C 89.4 -3.75 93.96 0.19 99.6 0.19 C 102.49 0.19 105.19 -1.05 107.03 -3.02 C 107.08 -3.13 107.3 -3.54 107.3 -3.97 L 107.3 -9.31 C 107.3 -10.21 106.57 -10.94 105.68 -10.94 L 101.98 -10.94 C 101.14 -10.94 100.49 -10.26 100.49 -9.45 C 100.49 -8.64 101.14 -7.96 101.98 -7.96 Z M 138.73 -1.84 L 132.27 -17.85 C 131.68 -19.25 129.73 -19.25 129.14 -17.85 L 122.69 -1.84 C 122.61 -1.65 122.58 -1.46 122.58 -1.24 C 122.58 -0.43 123.23 0.24 124.06 0.24 C 124.66 0.24 125.2 -0.14 125.41 -0.65 L 127.06 -4.72 L 134.35 -4.72 L 136 -0.65 C 136.21 -0.14 136.75 0.24 137.35 0.24 C 138.19 0.24 138.83 -0.43 138.83 -1.24 C 138.83 -1.46 138.81 -1.65 138.73 -1.84 Z M 128.25 -7.7 L 130.71 -13.77 L 133.16 -7.7 Z M 157.09 -1.35 L 157.03 -13.47 L 167.26 -0.62 C 168.29 0.59 170.32 -0.08 170.32 -1.7 L 170.32 -17.58 C 170.32 -18.39 169.64 -19.06 168.83 -19.06 C 168.02 -19.06 167.35 -18.39 167.35 -17.58 L 167.35 -5.29 L 156.98 -18.31 C 156.03 -19.55 154.06 -18.74 154.06 -17.23 L 154.12 -1.32 C 154.12 -0.51 154.79 0.16 155.6 0.16 C 156.41 0.16 157.09 -0.51 157.09 -1.35 Z M 207.09 -1.35 L 207.09 -7.96 L 216.27 -7.96 L 216.27 -1.35 C 216.27 -0.51 216.95 0.14 217.76 0.14 C 218.57 0.14 219.24 -0.51 219.24 -1.35 L 219.24 -17.58 C 219.24 -18.39 218.57 -19.06 217.76 -19.06 C 216.95 -19.06 216.27 -18.39 216.27 -17.58 L 216.27 -10.94 L 207.09 -10.94 L 207.09 -17.58 C 207.09 -18.39 206.42 -19.06 205.61 -19.06 C 204.8 -19.06 204.12 -18.39 204.12 -17.58 L 204.12 -1.35 C 204.12 -0.51 204.8 0.14 205.61 0.14 C 206.42 0.14 207.09 -0.51 207.09 -1.35 Z M 245.78 -2.97 L 237.49 -2.97 L 237.49 -7.96 L 243.89 -7.96 C 244.7 -7.96 245.38 -8.64 245.38 -9.45 C 245.38 -10.26 244.7 -10.94 243.89 -10.94 L 237.49 -10.94 L 237.49 -15.93 L 245.78 -15.93 C 246.59 -15.93 247.27 -16.61 247.27 -17.41 C 247.27 -18.23 246.59 -18.9 245.78 -18.9 L 236.14 -18.9 C 235.25 -18.9 234.52 -18.17 234.52 -17.28 L 234.52 -1.62 C 234.52 -0.73 235.25 0 236.14 0 L 245.78 0 C 246.59 0 247.27 -0.68 247.27 -1.48 C 247.27 -2.29 246.59 -2.97 245.78 -2.97 Z M 265.52 -1.35 L 265.52 -6.56 L 269.33 -6.56 C 269.33 -6.53 269.35 -6.53 269.35 -6.51 L 272.46 -0.65 C 272.7 -0.19 273.19 0.11 273.75 0.11 C 274.56 0.11 275.24 -0.54 275.24 -1.38 C 275.24 -1.62 275.16 -1.89 275.05 -2.08 L 272.32 -7.24 C 274.29 -8.26 275.67 -10.37 275.67 -12.77 C 275.67 -16.15 272.92 -18.9 269.54 -18.9 L 264.17 -18.9 C 263.28 -18.9 262.55 -18.17 262.55 -17.28 L 262.55 -1.35 C 262.55 -0.51 263.22 0.14 264.03 0.14 C 264.84 0.14 265.52 -0.51 265.52 -1.35 Z M 265.52 -9.53 L 265.52 -15.93 L 269.54 -15.93 C 271.46 -15.93 272.7 -14.69 272.7 -12.77 C 272.7 -10.8 271.46 -9.53 269.54 -9.53 Z M 302.21 -2.97 L 293.92 -2.97 L 293.92 -7.96 L 300.32 -7.96 C 301.13 -7.96 301.81 -8.64 301.81 -9.45 C 301.81 -10.26 301.13 -10.94 300.32 -10.94 L 293.92 -10.94 L 293.92 -15.93 L 302.21 -15.93 C 303.02 -15.93 303.7 -16.61 303.7 -17.41 C 303.7 -18.23 303.02 -18.9 302.21 -18.9 L 292.57 -18.9 C 291.68 -18.9 290.95 -18.17 290.95 -17.28 L 290.95 -1.62 C 290.95 -0.73 291.68 0 292.57 0 L 302.21 0 C 303.02 0 303.7 -0.68 303.7 -1.48 C 303.7 -2.29 303.02 -2.97 302.21 -2.97 Z" stroke-linecap="round" />
</g>
</g>
</g>
</svg>