<svg id="ewl58SDr0XQ1" xmlns="http://www.w3.org/2000/svg" xmlns:xlink="http://www.w3.org/1999/xlink" viewBox="0 0 100 21" shape-rendering="geometricPrecision" text-rendering="geometricPrecision" project-id="90cd46269a7b45e680dc35d9c4490bb4" export-id="e484566fbbb04570a4c26e163bceabd9" cached="false"><g transform="matrix(.16 0 0 0.19 49.999995 10.5)"><g transform="matrix(1 0 0 0.85749 0 0)" paint-order="stroke fill markers"><g paint-order="stroke fill markers"><path d="M17.14,0h6.05l-8.54-23.26h-6.05L0.1,0h6.05l1.5-4.05h7.99L17.14,0ZM9.59,-9.42l2.07-5.61l2.01,5.61h-4.08ZM35.7,0.48c4.32,0,8.5-2.42,8.5-7.08c0-4.59-3.6-6.49-7.51-7.68-1.06-.34-1.84-.65-2.35-.88-.71-.34-1.22-.72-1.22-1.57c0-.98,1.25-1.36,2.04-1.36c1.83,0,2.75.82,3.53,2.42l4.83-2.83c-1.67-3.43-4.56-5.2-8.36-5.2-4.15,0-7.69,2.69-7.69,6.97c0,4.39,3.13,6.12,6.9,7.24c1.19.34,2.04.65,2.62.89.78.3,1.57.71,1.57,1.66c0,1.26-1.7,1.87-2.72,1.87-2.21,0-3.74-.85-4.59-2.95l-4.76,2.78c1.53,3.91,5.13,5.72,9.21,5.72Zm22.34,0c4.32,0,8.5-2.42,8.5-7.08c0-4.59-3.61-6.49-7.52-7.68-1.05-.34-1.83-.65-2.34-.88-.72-.34-1.23-.72-1.23-1.57c0-.98,1.26-1.36,2.04-1.36c1.84,0,2.76.82,3.54,2.42l4.83-2.83c-1.67-3.43-4.56-5.2-8.37-5.2-4.14,0-7.68,2.69-7.68,6.97c0,4.39,3.13,6.12,6.9,7.24c1.19.34,2.04.65,2.62.89.78.3,1.56.71,1.56,1.66c0,1.26-1.7,1.87-2.72,1.87-2.21,0-3.74-.85-4.59-2.95l-4.76,2.78c1.53,3.91,5.14,5.72,9.22,5.72Zm24.99,0C89.69,0.48,95,-4.93,95,-11.53c0-6.69-5.34-11.96-11.97-11.96-6.67,0-12,5.37-12,11.96c0,6.57,5.37,12.01,12,12.01Zm-6.36-12.01c0-3.46,2.92-6.32,6.36-6.32c3.5,0,6.29,2.86,6.29,6.32c0,3.47-2.79,6.33-6.29,6.33-3.47,0-6.36-2.89-6.36-6.33Zm23.43,0c0,6.63,5.44,12.01,12,12.01c4.38,0,8.53-2.52,10.57-6.4l-5-2.72c-1.02,2.08-3.26,3.44-5.57,3.44-3.47,0-6.36-2.89-6.36-6.33c0-3.46,2.92-6.32,6.36-6.32c2.31,0,4.42,1.22,5.54,3.26l4.96-2.65c-2.07-3.87-6.12-6.25-10.5-6.25-6.6,0-12,5.3-12,11.96Zm29.2-11.73v23.26h5.68v-23.26h-5.68ZM157.25,0h6.05l-8.53-23.26h-6.05L140.22,0h6.05l1.49-4.05h7.99L157.25,0Zm-7.55-9.42l2.08-5.61l2,5.61h-4.08Zm31.21-8.46v-5.38h-17.37v5.38h5.88v17.88h5.65v-17.88h5.84Zm10.82,12.54v-3.87h8.09v-5.34h-8.09v-3.33h8.9v-5.38h-14.58v23.26h14.75v-5.34h-9.07Zm25.8-17.92h-9.93v23.26h9.93c6.63,0,11.94-4.9,11.94-11.53c0-6.59-5.31-11.73-11.94-11.73Zm-4.25,17.92v-12.54h4.25c3.5,0,6.29,2.82,6.29,6.29c0,3.5-2.85,6.25-6.29,6.25h-4.25Zm44.07-17.92h-8.88v23.26h5.65v-7.48h3.23c4.38,0,7.92-3.54,7.92-7.89s-3.54-7.89-7.92-7.89Zm-3.23,10.41v-5.03h3.23c1.46,0,2.51,1.05,2.51,2.51c0,1.43-1.09,2.52-2.51,2.52h-3.23ZM279.79,0.48c4.31,0,8.5-2.42,8.5-7.08c0-4.59-3.61-6.49-7.52-7.68-1.05-.34-1.83-.65-2.34-.88-.72-.34-1.23-.72-1.23-1.57c0-.98,1.26-1.36,2.04-1.36c1.84,0,2.76.82,3.54,2.42l4.83-2.83c-1.67-3.43-4.56-5.2-8.37-5.2-4.15,0-7.68,2.69-7.68,6.97c0,4.39,3.13,6.12,6.9,7.24c1.19.34,2.04.65,2.62.89.78.3,1.56.71,1.56,1.66c0,1.26-1.7,1.87-2.72,1.87-2.21,0-3.74-.85-4.59-2.95l-4.76,2.78c1.53,3.91,5.14,5.72,9.22,5.72Zm27.13-23.74l-4.73,8.74-4.76-8.74h-6.39l8.3,15.37v7.89h5.67v-7.82l8.3-15.44h-6.39Zm11.15,11.73c0,6.63,5.44,12.01,12,12.01c4.39,0,8.54-2.52,10.58-6.4l-5-2.72c-1.02,2.08-3.27,3.44-5.58,3.44-3.47,0-6.36-2.89-6.36-6.33c0-3.46,2.93-6.32,6.36-6.32c2.31,0,4.42,1.22,5.54,3.26l4.97-2.65c-2.08-3.87-6.12-6.25-10.51-6.25-6.59,0-12,5.3-12,11.96Zm43.18-11.73v8.67h-9.32v-8.67h-5.67v23.26h5.67v-9.21h9.32v9.21h5.64v-23.26h-5.64ZM384.74,0.48c6.67,0,11.97-5.41,11.97-12.01c0-6.69-5.34-11.96-11.97-11.96-6.66,0-12,5.37-12,11.96c0,6.57,5.37,12.01,12,12.01Zm-6.35-12.01c0-3.46,2.92-6.32,6.35-6.32c3.51,0,6.29,2.86,6.29,6.32c0,3.47-2.78,6.33-6.29,6.33-3.46,0-6.35-2.89-6.35-6.33Zm39.64-6.35v-5.38h-17.37v5.38h5.88v17.88h5.64v-17.88h5.85Zm20.71-5.38v8.67h-9.32v-8.67h-5.68v23.26h5.68v-9.21h9.32v9.21h5.64v-23.26h-5.64Zm19.17,17.92v-3.87h8.09v-5.34h-8.09v-3.33h8.91v-5.38h-14.59v23.26h14.76v-5.34h-9.08Zm23.97-2.14L486.06,0h6.46l-4.86-8.77c2.25-1.46,3.54-3.95,3.54-6.6c0-4.38-3.5-7.89-7.86-7.89h-9.86v23.26h5.68v-7.48h2.72Zm-2.72-5.37v-5.03h4.18c1.43,0,2.52,1.08,2.52,2.51c0,1.36-1.16,2.52-2.52,2.52h-4.18ZM513.81,0h6.05l-8.53-23.26h-6.06L496.77,0h6.06l1.49-4.05h7.99L513.81,0Zm-7.55-9.42l2.07-5.61l2.01,5.61h-4.08Zm27.71-13.84h-8.87v23.26h5.64v-7.48h3.23c4.39,0,7.92-3.54,7.92-7.89s-3.53-7.89-7.92-7.89Zm-3.23,10.41v-5.03h3.23c1.46,0,2.52,1.05,2.52,2.51c0,1.43-1.09,2.52-2.52,2.52h-3.23Zm16.97-10.41v23.26h5.67v-23.26h-5.67ZM568.58,0.48c4.32,0,8.5-2.42,8.5-7.08c0-4.59-3.6-6.49-7.51-7.68-1.06-.34-1.84-.65-2.35-.88-.71-.34-1.22-.72-1.22-1.57c0-.98,1.26-1.36,2.04-1.36c1.83,0,2.75.82,3.53,2.42l4.83-2.83c-1.66-3.43-4.55-5.2-8.36-5.2-4.15,0-7.69,2.69-7.69,6.97c0,4.39,3.13,6.12,6.91,7.24c1.19.34,2.04.65,2.61.89.79.3,1.57.71,1.57,1.66c0,1.26-1.7,1.87-2.72,1.87-2.21,0-3.74-.85-4.59-2.95l-4.76,2.78c1.53,3.91,5.13,5.72,9.21,5.72Zm29.89-18.36v-5.38h-17.38v5.38h5.89v17.88h5.64v-17.88h5.85ZM611.52,0.48c4.32,0,8.5-2.42,8.5-7.08c0-4.59-3.6-6.49-7.51-7.68-1.05-.34-1.84-.65-2.35-.88-.71-.34-1.22-.72-1.22-1.57c0-.98,1.26-1.36,2.04-1.36c1.84,0,2.75.82,3.54,2.42l4.82-2.83c-1.66-3.43-4.55-5.2-8.36-5.2-4.15,0-7.68,2.69-7.68,6.97c0,4.39,3.12,6.12,6.9,7.24c1.19.34,2.04.65,2.62.89.78.3,1.56.71,1.56,1.66c0,1.26-1.7,1.87-2.72,1.87-2.21,0-3.74-.85-4.59-2.95l-4.76,2.78c1.53,3.91,5.13,5.72,9.21,5.72Z" transform="translate(-310.06 11.61)" paint-order="stroke fill markers" fill="#3f50b5" stroke-width="0"/></g></g></g></svg>
