<svg id="e2Qnsl3YAW11" xmlns="http://www.w3.org/2000/svg" xmlns:xlink="http://www.w3.org/1999/xlink" viewBox="0 0 125 21" shape-rendering="geometricPrecision" text-rendering="geometricPrecision" project-id="90cd46269a7b45e680dc35d9c4490bb4" export-id="ee4935b6084a4b71bef03f59dea76d3b" cached="false"><g transform="matrix(.16 0 0 0.19 49.999995 10.5)"><g transform="matrix(1 0 0 0.85749 0 0)" paint-order="stroke fill markers"><g paint-order="stroke fill markers"><path d="M17.14,0h6.05l-8.54-23.26h-6.05L0.1,0h6.05l1.5-4.05h7.99L17.14,0ZM9.59,-9.42l2.07-5.61l2.01,5.61h-4.08ZM35.7,0.48c4.32,0,8.5-2.42,8.5-7.08c0-4.59-3.6-6.49-7.51-7.68-1.06-.34-1.84-.65-2.35-.88-.71-.34-1.22-.72-1.22-1.57c0-.98,1.25-1.36,2.04-1.36c1.83,0,2.75.82,3.53,2.42l4.83-2.83c-1.67-3.43-4.56-5.2-8.36-5.2-4.15,0-7.69,2.69-7.69,6.97c0,4.39,3.13,6.12,6.9,7.24c1.19.34,2.04.65,2.62.89.78.3,1.57.71,1.57,1.66c0,1.26-1.7,1.87-2.72,1.87-2.21,0-3.74-.85-4.59-2.95l-4.76,2.78c1.53,3.91,5.13,5.72,9.21,5.72Zm22.34,0c4.32,0,8.5-2.42,8.5-7.08c0-4.59-3.61-6.49-7.52-7.68-1.05-.34-1.83-.65-2.34-.88-.72-.34-1.23-.72-1.23-1.57c0-.98,1.26-1.36,2.04-1.36c1.84,0,2.76.82,3.54,2.42l4.83-2.83c-1.67-3.43-4.56-5.2-8.37-5.2-4.14,0-7.68,2.69-7.68,6.97c0,4.39,3.13,6.12,6.9,7.24c1.19.34,2.04.65,2.62.89.78.3,1.56.71,1.56,1.66c0,1.26-1.7,1.87-2.72,1.87-2.21,0-3.74-.85-4.59-2.95l-4.76,2.78c1.53,3.91,5.14,5.72,9.22,5.72Zm24.99,0C89.69,0.48,95,-4.93,95,-11.53c0-6.69-5.34-11.96-11.97-11.96-6.67,0-12,5.37-12,11.96c0,6.57,5.37,12.01,12,12.01Zm-6.36-12.01c0-3.46,2.92-6.32,6.36-6.32c3.5,0,6.29,2.86,6.29,6.32c0,3.47-2.79,6.33-6.29,6.33-3.47,0-6.36-2.89-6.36-6.33Zm23.43,0c0,6.63,5.44,12.01,12,12.01c4.38,0,8.53-2.52,10.57-6.4l-5-2.72c-1.02,2.08-3.26,3.44-5.57,3.44-3.47,0-6.36-2.89-6.36-6.33c0-3.46,2.92-6.32,6.36-6.32c2.31,0,4.42,1.22,5.54,3.26l4.96-2.65c-2.07-3.87-6.12-6.25-10.5-6.25-6.6,0-12,5.3-12,11.96Zm29.2-11.73v23.26h5.68v-23.26h-5.68ZM157.25,0h6.05l-8.53-23.26h-6.05L140.22,0h6.05l1.49-4.05h7.99L157.25,0Zm-7.55-9.42l2.08-5.61l2,5.61h-4.08Zm31.21-8.46v-5.38h-17.37v5.38h5.88v17.88h5.65v-17.88h5.84Zm10.82,12.54v-3.87h8.09v-5.34h-8.09v-3.33h8.9v-5.38h-14.58v23.26h14.75v-5.34h-9.07Zm25.8-17.92h-9.93v23.26h9.93c6.63,0,11.94-4.9,11.94-11.53c0-6.59-5.31-11.73-11.94-11.73Zm-4.25,17.92v-12.54h4.25c3.5,0,6.29,2.82,6.29,6.29c0,3.5-2.85,6.25-6.29,6.25h-4.25Zm44.07-17.92h-8.88v23.26h5.65v-7.48h3.23c4.38,0,7.92-3.54,7.92-7.89s-3.54-7.89-7.92-7.89Zm-3.23,10.41v-5.03h3.23c1.46,0,2.51,1.05,2.51,2.51c0,1.43-1.09,2.52-2.51,2.52h-3.23ZM279.79,0.48c4.31,0,8.5-2.42,8.5-7.08c0-4.59-3.61-6.49-7.52-7.68-1.05-.34-1.83-.65-2.34-.88-.72-.34-1.23-.72-1.23-1.57c0-.98,1.26-1.36,2.04-1.36c1.84,0,2.76.82,3.54,2.42l4.83-2.83c-1.67-3.43-4.56-5.2-8.37-5.2-4.15,0-7.68,2.69-7.68,6.97c0,4.39,3.13,6.12,6.9,7.24c1.19.34,2.04.65,2.62.89.78.3,1.56.71,1.56,1.66c0,1.26-1.7,1.87-2.72,1.87-2.21,0-3.74-.85-4.59-2.95l-4.76,2.78c1.53,3.91,5.14,5.72,9.22,5.72Zm27.13-23.74l-4.73,8.74-4.76-8.74h-6.39l8.3,15.37v7.89h5.67v-7.82l8.3-15.44h-6.39Zm11.15,11.73c0,6.63,5.44,12.01,12,12.01c4.39,0,8.54-2.52,10.58-6.4l-5-2.72c-1.02,2.08-3.27,3.44-5.58,3.44-3.47,0-6.36-2.89-6.36-6.33c0-3.46,2.93-6.32,6.36-6.32c2.31,0,4.42,1.22,5.54,3.26l4.97-2.65c-2.08-3.87-6.12-6.25-10.51-6.25-6.59,0-12,5.3-12,11.96Zm43.18-11.73v8.67h-9.32v-8.67h-5.67v23.26h5.67v-9.21h9.32v9.21h5.64v-23.26h-5.64ZM384.74,0.48c6.67,0,11.97-5.41,11.97-12.01c0-6.69-5.34-11.96-11.97-11.96-6.66,0-12,5.37-12,11.96c0,6.57,5.37,12.01,12,12.01Zm-6.35-12.01c0-3.46,2.92-6.32,6.35-6.32c3.51,0,6.29,2.86,6.29,6.32c0,3.47-2.78,6.33-6.29,6.33-3.46,0-6.35-2.89-6.35-6.33Zm39.64-6.35v-5.38h-17.37v5.38h5.88v17.88h5.64v-17.88h5.85Zm20.71-5.38v8.67h-9.32v-8.67h-5.68v23.26h5.68v-9.21h9.32v9.21h5.64v-23.26h-5.64Zm19.17,17.92v-3.87h8.09v-5.34h-8.09v-3.33h8.91v-5.38h-14.59v23.26h14.76v-5.34h-9.08Zm23.97-2.14L486.06,0h6.46l-4.86-8.77c2.25-1.46,3.54-3.95,3.54-6.6c0-4.38-3.5-7.89-7.86-7.89h-9.86v23.26h5.68v-7.48h2.72Zm-2.72-5.37v-5.03h4.18c1.43,0,2.52,1.08,2.52,2.51c0,1.36-1.16,2.52-2.52,2.52h-4.18ZM513.81,0h6.05l-8.53-23.26h-6.06L496.77,0h6.06l1.49-4.05h7.99L513.81,0Zm-7.55-9.42l2.07-5.61l2.01,5.61h-4.08Zm27.71-13.84h-8.87v23.26h5.64v-7.48h3.23c4.39,0,7.92-3.54,7.92-7.89s-3.53-7.89-7.92-7.89Zm-3.23,10.41v-5.03h3.23c1.46,0,2.52,1.05,2.52,2.51c0,1.43-1.09,2.52-2.52,2.52h-3.23Zm16.97-10.41v23.26h5.67v-23.26h-5.67ZM568.58,0.48c4.32,0,8.5-2.42,8.5-7.08c0-4.59-3.6-6.49-7.51-7.68-1.06-.34-1.84-.65-2.35-.88-.71-.34-1.22-.72-1.22-1.57c0-.98,1.26-1.36,2.04-1.36c1.83,0,2.75.82,3.53,2.42l4.83-2.83c-1.66-3.43-4.55-5.2-8.36-5.2-4.15,0-7.69,2.69-7.69,6.97c0,4.39,3.13,6.12,6.91,7.24c1.19.34,2.04.65,2.61.89.79.3,1.57.71,1.57,1.66c0,1.26-1.7,1.87-2.72,1.87-2.21,0-3.74-.85-4.59-2.95l-4.76,2.78c1.53,3.91,5.13,5.72,9.21,5.72Zm29.89-18.36v-5.38h-17.38v5.38h5.89v17.88h5.64v-17.88h5.85ZM611.52,0.48c4.32,0,8.5-2.42,8.5-7.08c0-4.59-3.6-6.49-7.51-7.68-1.05-.34-1.84-.65-2.35-.88-.71-.34-1.22-.72-1.22-1.57c0-.98,1.26-1.36,2.04-1.36c1.84,0,2.75.82,3.54,2.42l4.82-2.83c-1.66-3.43-4.55-5.2-8.36-5.2-4.15,0-7.68,2.69-7.68,6.97c0,4.39,3.12,6.12,6.9,7.24c1.19.34,2.04.65,2.62.89.78.3,1.56.71,1.56,1.66c0,1.26-1.7,1.87-2.72,1.87-2.21,0-3.74-.85-4.59-2.95l-4.76,2.78c1.53,3.91,5.13,5.72,9.21,5.72Z" transform="translate(-160.06 11.61)" paint-order="stroke fill markers" fill="#fff" stroke-width="0"/></g></g></g><g transform="matrix(.04 0 0 0.04-13.442876-4.96439)"><g transform="translate(640 512)"><rect width="1280" height="1024" rx="0" ry="0" transform="translate(-640-512)" paint-order="stroke fill markers" fill="#fff" fill-opacity="0" stroke-width="0"/></g><g transform="matrix(1.92115 0 0 1.92115 640 394.595)"><g paint-order="stroke fill markers"><g transform="matrix(.339405 0 0 0.339405 0 0)" paint-order="stroke fill markers"><path d="M455.3,187.8c-135.4,19.5-242.7,126-263.2,261.3-13.7,90.2,11.2,174.6,60.6,239.2c3.8,5,3.7,11.9-.3,16.8l-61.6,75.3c-8.2,10.1,1.1,24.8,13.7,21.7l131.9-33c3.4-.8,6.9-.4,9.9,1.4c41.2,23.6,88.3,38.1,138.5,40.8C673.5,821.5,829.2,662,814.6,473.6C801,296.7,640.7,161,455.3,187.8Z" transform="translate(-501.627-498.089)" paint-order="stroke fill markers" fill="none" stroke="#fff" stroke-width="17" stroke-miterlimit="1"/></g><g transform="matrix(.339405 0 0 0.339405-.466351 1.2766)" paint-order="stroke fill markers"><path d="M507.1,764.3c.6-.6.7-1.5.4-2.3l-16.7-34.2c-1-2-2-4.1-3-6.2l-.5-1.1C476,696.6,462,667,434,667c-2.8,0-5.7.3-8.7.9-3.9.8-7.8,1.6-11.6,2.5l-1.1.2c-14.3,3.1-27.6,6.1-41.7,6.1-7.5,0-14.6-.8-21.5-2.6-2.7-.7-5-1.8-6.8-3.3-7.8-6.6-6.6-18.5-5.6-29c.4-3.5.7-6.9.7-10c0-6.4-2.8-8.6-6.7-11.6l-.7-.5c-.4-.3-.8-.4-1.2-.4h-6.2l-.5-2.4c-.5-2.3-1-5.8-1-7.1v-.1c.1-3.4,1.3-6.4,2.9-9.1-.7-1.9-1.1-4-1.2-6.1-.1-1.3,0-2.7.3-4-.3-.1-.5-.2-.8-.3l-.3-.1-.3-.1c-3.5-2-6.4-4.9-8.2-8.5l-2.2-4.3.8-1.4c.8-1.5,2.1-3.5,2.9-4.9l.1-.2c1.8-3,2.7-4.4,3-5.2c1.6-4.7,2.2-11.6-.4-15.7-1.3-2-3.1-3.2-5.4-3.4-14-1.5-21.7-8.6-23.8-10.9l-.4-.4-.3-.6c-.9-2.1-.3-6.7.8-9.2.5-1.2,1.3-2.3,2-3.4c10.7-15.9,21.9-32.8,31.8-50.6c1.1-1.9,2.4-4.3,3.1-6.8c1.6-5.5-.1-10.4-1.8-15.1l-.2-.4c-.6-1.6-1.1-3.1-1.5-4.6-1.9-7.2-3-13.9-3.5-20.5-1-13.2.3-27.2,3.9-41.4c6.5-25.9,20.1-51.7,39.3-74.8c3.7-4.4,7.5-8.7,11.6-12.8c35.3-35.8,84.1-55.5,137.4-55.5c2.5,0,5,0,7.5.1c58.4,2,112.7,27.4,149,69.6c3,3.5,5.8,7.1,8.5,10.6c22.8,30.8,35.9,68.1,36.8,105.1.6,25-5.2,50.2-17.8,77-2,4.2-4.1,8.5-5.9,12.3-6.6,13.6-13.5,27.6-17.9,42.5l-.2.6-.4.5c-.2.2-.4.5-.4.8-11,38.1-11.1,78.4-.3,116.7.2.9,1,1.5,1.9,1.5.1,0,.3,0,.6-.1C661,709,583,757,507.1,764.3Z" transform="translate(-500.253-501.85)" paint-order="stroke fill markers" fill="none"/></g><g transform="matrix(.339405 0 0 0.339405 5.96956-22.7023)" paint-order="stroke fill markers"><path d="M478,474l-32.3-37.7c-17.1-21.6-13.4-53.1,8.2-70.2c8.8-7,19.8-10.8,31-10.8c11.9,0,23.3,4.2,32.3,11.8.5.4,1,.5,1.3.5.5,0,1-.2,1.3-.5C529,358.7,541,354,553.5,354c11.2,0,22.2,3.8,31,10.8c10.3,8.2,16.9,19.8,18.6,32.9c1.7,13.3-2.3,27.1-10.9,38.1l-.5.6L530.9,493c-5.7,5.3-11.6,10.5-17.3,15.4L478,474Z" transform="translate(-519.215-431.2)" paint-order="stroke fill markers" fill="none"/></g><g transform="matrix(.339405 0 0 0.339405-.493691 0.675574)" paint-order="stroke fill markers"><path d="M701,504.5c-2,4.2-4,8.3-6,12.4-6.8,14-13.9,28.4-18.1,43.4-.2.7-.6,1.4-1,1.9-10.1,36.2-10,74.5.3,110.8.7,2.6-.7,5.3-3.3,6.1-.1,0-.1,0-.2.1-.5.1-.9.2-1.4.2-2.2,0-4.2-1.4-4.8-3.6-11-38.8-10.9-79.7.3-118.3.2-.7.6-1.3,1-1.9c4.5-15,11.4-29.2,18.1-42.9c2-4,4-8.2,5.9-12.3c12.4-26.3,18.1-51,17.5-75.6-.9-36.3-13.8-73-36.3-103.4-2.6-3.5-5.4-7-8.3-10.4-35.7-41.6-89.3-66.6-146.8-68.5-55.5-1.9-106.1,17.5-142.7,54.5-3.9,4-7.8,8.2-11.4,12.6-18.9,22.7-32.3,48.2-38.7,73.6-3.5,13.9-4.8,27.5-3.8,40.4.5,6.4,1.6,12.9,3.4,20c.4,1.6,1,3.1,1.5,4.8c1.8,4.9,3.8,10.5,1.9,16.9-.8,2.9-2.3,5.4-3.4,7.5-10,17.9-21.2,34.9-31.9,50.8-.7,1.1-1.4,2.1-1.8,3-.9,2.1-1.2,5.8-.8,6.9v0c1.8,2,8.9,8.6,22,10c3.2.3,5.9,2,7.7,4.8c3.2,5,2.6,12.8.7,18.3-.4,1.1-1.1,2.4-3.2,5.8-.8,1.3-2.2,3.5-3,5l1.5,3c1.5,3.1,3.9,5.6,6.9,7.2c1.7.5,3.1,1.5,4.2,2.3c31.2.8,65.9.6,103.1-.8c38.7-1.4,76.6-15.5,106.8-39.9c7.8-6.3,14.1-11.6,18.6-15.8L626,468l3.3-4.1c16-20.2,23.1-45.5,20.1-71.1s-15.8-48.5-36-64.5c-17-13.4-38.2-20.8-59.8-20.8-11.8,0-23.4,2.1-34.4,6.3-1.1.4-2.3.4-3.4.1-10-3.4-20.4-5.1-30.9-5.1-21.6,0-42.9,7.4-59.8,20.8-41.7,33-48.9,93.8-15.8,135.6l3.5,4.5l87.5,79c11.8-9.3,23.3-19.1,34.2-29.3l73.3-68.2l1.5-1.9c12.1-15.3,17.8-34.8,15.6-53.5-2.2-19.1-11.7-36.2-26.8-48.1-12.6-10-28.4-15.5-44.5-15.5-11.6,0-23.2,2.8-33.4,8.2-1.4.7-3,.8-4.5.1-9.6-4.5-20.3-7-30.9-7-16.1,0-31.9,5.5-44.5,15.5-31,24.5-36.3,69.8-11.8,100.8l2.3,2.9l69.4,62.9l2.5-2c3-2.5,5.9-4.9,8.9-7.5c5.8-5,11.6-10.1,17.2-15.4l60.6-56.4.4-.5c8.2-10.3,11.9-23.4,10.3-35.8-1.6-12.3-7.8-23.2-17.5-30.9-8.3-6.5-18.6-10.1-29.1-10.1-11.8,0-23.1,4.4-31.7,12.3-1.9,1.7-4.7,1.8-6.6.1-8.4-7.2-19.2-11.1-30.4-11.1-10.5,0-20.9,3.6-29.1,10.1-20.3,16.1-23.8,45.7-7.7,66l1,1.3l51.2,46.4c20.1-17.1,39.7-35.4,58.7-53.2c4.1-3.8,8.2-7.7,12.3-11.5c3.6-4.7,5.2-10.5,4.4-16.4-.8-6-3.9-11.3-8.8-14.9-9.6-7.1-23.5-5.1-31.1,4.5l-13.1,16.6c-1,1.2-2.4,1.9-3.9,1.9s-3-.7-3.9-1.9l-12.5-15.7c-7.6-9.6-21.6-11.3-31.2-3.7-9.5,7.5-11.2,21.3-3.9,30.9l32.9,29.8l11.4-10.4L483,409.3c-1.9-2-1.9-5.1,0-7.1c2-2,5.1-1.9,7.1,0l28.3,28.5l30.3-26.5c2.1-1.8,5.2-1.6,7,.4s1.7,5.2-.4,7L503.5,459c-1.9,1.7-4.8,1.7-6.7,0l-36.6-33.2c-.2-.2-.4-.4-.6-.6-11-13.9-8.6-34.3,5.3-45.3s34.3-8.7,45.3,5.3l8.5,10.8l9.2-11.6c10.9-13.8,31.1-16.6,44.9-6.3c7,5.3,11.5,12.9,12.7,21.6s-1.2,17.3-6.7,24.2c-.2.2-.3.4-.5.6-4.2,3.9-8.4,7.8-12.6,11.8-20.1,18.8-40.9,38.2-62.4,56.3-1.3,1.1-3.1,1.4-4.7,1-.7-.2-1.3-.6-1.9-1.1L442,442.8c-.2-.2-.4-.4-.6-.6l-1.3-1.6c-19.5-24.7-15.3-60.6,9.4-80.1c10-7.9,22.6-12.3,35.3-12.3c12.1,0,23.8,3.8,33.5,10.8c10-7.9,22.3-12.1,35.2-12.1c12.8,0,25.3,4.4,35.3,12.3c11.8,9.3,19.3,22.6,21.2,37.5c1.9,15.1-2.6,30.9-12.4,43.3l-.6.8c-.2.2-.3.4-.5.6l-60.9,56.7c-8.6,8-17.5,15.8-26.6,23.2l-5.8,4.8c-1.9,1.6-4.7,1.5-6.5-.2l-72.9-66.1c-.2-.2-.4-.4-.6-.6l-2.5-3.2c-28-35.4-21.9-86.9,13.4-114.8c14.4-11.4,32.4-17.6,50.7-17.6c11.3,0,22.6,2.4,32.9,6.9c11.1-5.4,23.4-8.2,35.8-8.2c18.3,0,36.3,6.3,50.7,17.6c17.2,13.6,28,33,30.5,54.8c2.5,21.3-4,43.5-17.7,60.9l-1.7,2.2c-.2.2-.3.4-.5.6l-73.5,68.5c-12.2,11.4-25.1,22.3-38.2,32.5-1.9,1.5-4.6,1.4-6.4-.2l-90.9-82.1c-.2-.2-.4-.4-.6-.6l-3.8-4.8c-36.4-46.1-28.6-113.2,17.5-149.6c18.7-14.8,42.2-23,66-23c11,0,21.9,1.7,32.4,5c11.7-4.2,23.9-6.4,36.3-6.4c23.9,0,47.3,8.2,66,23c22.3,17.6,36.4,42.9,39.7,71.2s-4.6,56.1-22.2,78.4l-3.5,4.5c-.2.2-.3.4-.5.5l-70.4,65.5c-4.7,4.4-11.1,9.8-19.1,16.3-31.9,25.7-71.9,40.6-112.8,42.1-23.1.8-45.3,1.2-66.3,1.2-12.6,0-24.8-.2-36.5-.5-2.1,3.4-3.9,6.5-3.9,10c0,1.1.5,4.3,1,6.5h3.8c1.1,0,2.2.4,3,1l.7.6c4.1,3.1,8,6.1,7.9,14c0,3.2-.4,6.6-.7,10.2-1,10.2-2.1,20.8,4.5,26.4c1.5,1.2,3.4,2.2,5.6,2.7c21.5,5.4,41.1,1,61.9-3.5c4.2-.9,8.5-1.9,12.8-2.7c36.3-7.3,53.1,28.3,65.3,54.2c1.2,2.5,2.4,5,3.5,7.3l16.7,34.2c1,2,.5,4.2-.9,5.7-.4.4-.9.8-1.4,1-.7.3-1.5.5-2.2.5-1.8,0-3.6-1-4.5-2.8L484.4,731c-1.2-2.4-2.3-4.9-3.5-7.4-11.4-24.2-25.6-54.4-54.3-48.7-4.2.8-8.5,1.8-12.6,2.7-21,4.6-42.7,9.4-66.4,3.4-3.8-.9-7-2.6-9.6-4.8-10.6-9-9.2-23.4-8-35c.3-3.4.6-6.5.7-9.3c0-2.8-.3-3.2-3.4-5.6h-5.2c0,0-.1,0-.1,0-5.1-.1-6.1-5.9-6.8-9.3-.5-2.8-.9-6.1-.9-7.4.1-5.3,2.1-9.6,4.4-13.4-4.8-2.6-8.7-6.6-11.1-11.6l-2.5-4.9c-1.5-3.1,0-5.5,4.3-12.7.9-1.4,2.1-3.4,2.4-4c1.5-4.5,1-9,.1-9.7c0,0,0,0-.1,0-16.1-1.7-25.1-9.8-28.3-13.1-4.6-4.7-2.7-14-1.1-17.7.8-1.8,1.8-3.3,2.6-4.6c10.5-15.7,21.7-32.5,31.5-50.1.9-1.7,2-3.6,2.5-5.4c1-3.4-.3-6.8-1.7-10.8-.6-1.8-1.3-3.7-1.8-5.7-2-7.7-3.2-14.8-3.7-21.8-1-14,.3-28.6,4-43.6c6.7-26.9,20.8-53.7,40.7-77.5c3.8-4.6,7.8-9,12-13.2c19.6-19.8,43-34.9,69.7-44.8c25.4-9.4,52.4-13.7,80.4-12.7c60.4,2.1,116.5,28.3,154.1,72c3.1,3.6,6,7.3,8.8,11c23.7,32,37.3,70.7,38.2,109.1.5,26.1-5.6,52.3-18.7,80.1Z" transform="translate(-500.172-500.079)" paint-order="stroke fill markers" fill="#fff"/></g></g></g></g></svg>
